<svg width="120" height="40" viewBox="0 0 120 40" fill="none" xmlns="http://www.w3.org/2000/svg">
<g clip-path="url(#clip0_0_1038)">
<path fill-rule="evenodd" clip-rule="evenodd" d="M120 0H0V32H52L60 40L68 32H120V0Z" fill="#FCB72B"/>
<path d="M38.637 11.9H40.353V19.362H44.487V21H38.637V11.9ZM52.2826 17.854C52.2826 18.3913 52.1916 18.868 52.0096 19.284C51.8276 19.6913 51.5806 20.038 51.2686 20.324C50.9566 20.6013 50.5969 20.8137 50.1896 20.961C49.7909 21.1083 49.3706 21.182 48.9286 21.182C48.4866 21.182 48.0619 21.1083 47.6546 20.961C47.2559 20.8137 46.9006 20.6013 46.5886 20.324C46.2766 20.038 46.0296 19.6913 45.8476 19.284C45.6656 18.868 45.5746 18.3913 45.5746 17.854V17.698C45.5746 17.1693 45.6656 16.7013 45.8476 16.294C46.0296 15.878 46.2766 15.527 46.5886 15.241C46.9006 14.955 47.2559 14.7383 47.6546 14.591C48.0619 14.4437 48.4866 14.37 48.9286 14.37C49.3706 14.37 49.7909 14.4437 50.1896 14.591C50.5969 14.7383 50.9566 14.955 51.2686 15.241C51.5806 15.527 51.8276 15.878 52.0096 16.294C52.1916 16.7013 52.2826 17.1693 52.2826 17.698V17.854ZM48.9286 19.622C49.1626 19.622 49.3836 19.583 49.5916 19.505C49.7996 19.427 49.9816 19.3143 50.1376 19.167C50.2936 19.0197 50.4149 18.842 50.5016 18.634C50.5969 18.4173 50.6446 18.1747 50.6446 17.906V17.646C50.6446 17.3773 50.5969 17.139 50.5016 16.931C50.4149 16.7143 50.2936 16.5323 50.1376 16.385C49.9816 16.2377 49.7996 16.125 49.5916 16.047C49.3836 15.969 49.1626 15.93 48.9286 15.93C48.6946 15.93 48.4736 15.969 48.2656 16.047C48.0576 16.125 47.8756 16.2377 47.7196 16.385C47.5636 16.5323 47.4379 16.7143 47.3426 16.931C47.2559 17.139 47.2126 17.3773 47.2126 17.646V17.906C47.2126 18.1747 47.2559 18.4173 47.3426 18.634C47.4379 18.842 47.5636 19.0197 47.7196 19.167C47.8756 19.3143 48.0576 19.427 48.2656 19.505C48.4736 19.583 48.6946 19.622 48.9286 19.622ZM54.9822 21H53.3442V14.552H54.9822V15.514H55.2162C55.3636 15.15 55.6019 14.8683 55.9312 14.669C56.2606 14.4697 56.6462 14.37 57.0882 14.37C57.4002 14.37 57.6906 14.422 57.9592 14.526C58.2366 14.6213 58.4792 14.773 58.6872 14.981C58.8952 15.189 59.0556 15.4533 59.1682 15.774C59.2896 16.0947 59.3502 16.476 59.3502 16.918V21H57.7122V17.334C57.7122 16.8747 57.5996 16.515 57.3742 16.255C57.1576 15.9863 56.8412 15.852 56.4252 15.852C55.9399 15.852 55.5759 16.0167 55.3332 16.346C55.0992 16.6667 54.9822 17.1 54.9822 17.646V21ZM65.3518 20.064H65.1178C65.0485 20.2113 64.9618 20.3543 64.8578 20.493C64.7625 20.623 64.6325 20.74 64.4678 20.844C64.3118 20.948 64.1212 21.0303 63.8958 21.091C63.6792 21.1517 63.4148 21.182 63.1028 21.182C62.7042 21.182 62.3315 21.1127 61.9848 20.974C61.6468 20.8267 61.3478 20.6143 61.0878 20.337C60.8365 20.051 60.6372 19.7043 60.4898 19.297C60.3512 18.8897 60.2818 18.4217 60.2818 17.893V17.659C60.2818 17.139 60.3555 16.6753 60.5028 16.268C60.6588 15.8607 60.8668 15.5183 61.1268 15.241C61.3955 14.955 61.7032 14.7383 62.0498 14.591C62.4052 14.4437 62.7778 14.37 63.1678 14.37C63.6878 14.37 64.0995 14.4697 64.4028 14.669C64.7062 14.8597 64.9445 15.1327 65.1178 15.488H65.3518V11.9H66.9898V21H65.3518V20.064ZM63.6358 19.622C64.1472 19.622 64.5588 19.4617 64.8708 19.141C65.1915 18.8117 65.3518 18.3827 65.3518 17.854V17.698C65.3518 17.1693 65.1915 16.7447 64.8708 16.424C64.5588 16.0947 64.1472 15.93 63.6358 15.93C63.1245 15.93 62.7085 16.0903 62.3878 16.411C62.0758 16.723 61.9198 17.152 61.9198 17.698V17.854C61.9198 18.4 62.0758 18.8333 62.3878 19.154C62.7085 19.466 63.1245 19.622 63.6358 19.622ZM74.4214 17.854C74.4214 18.3913 74.3304 18.868 74.1484 19.284C73.9664 19.6913 73.7194 20.038 73.4074 20.324C73.0954 20.6013 72.7358 20.8137 72.3284 20.961C71.9298 21.1083 71.5094 21.182 71.0674 21.182C70.6254 21.182 70.2008 21.1083 69.7934 20.961C69.3948 20.8137 69.0394 20.6013 68.7274 20.324C68.4154 20.038 68.1684 19.6913 67.9864 19.284C67.8044 18.868 67.7134 18.3913 67.7134 17.854V17.698C67.7134 17.1693 67.8044 16.7013 67.9864 16.294C68.1684 15.878 68.4154 15.527 68.7274 15.241C69.0394 14.955 69.3948 14.7383 69.7934 14.591C70.2008 14.4437 70.6254 14.37 71.0674 14.37C71.5094 14.37 71.9298 14.4437 72.3284 14.591C72.7358 14.7383 73.0954 14.955 73.4074 15.241C73.7194 15.527 73.9664 15.878 74.1484 16.294C74.3304 16.7013 74.4214 17.1693 74.4214 17.698V17.854ZM71.0674 19.622C71.3014 19.622 71.5224 19.583 71.7304 19.505C71.9384 19.427 72.1204 19.3143 72.2764 19.167C72.4324 19.0197 72.5538 18.842 72.6404 18.634C72.7358 18.4173 72.7834 18.1747 72.7834 17.906V17.646C72.7834 17.3773 72.7358 17.139 72.6404 16.931C72.5538 16.7143 72.4324 16.5323 72.2764 16.385C72.1204 16.2377 71.9384 16.125 71.7304 16.047C71.5224 15.969 71.3014 15.93 71.0674 15.93C70.8334 15.93 70.6124 15.969 70.4044 16.047C70.1964 16.125 70.0144 16.2377 69.8584 16.385C69.7024 16.5323 69.5768 16.7143 69.4814 16.931C69.3948 17.139 69.3514 17.3773 69.3514 17.646V17.906C69.3514 18.1747 69.3948 18.4173 69.4814 18.634C69.5768 18.842 69.7024 19.0197 69.8584 19.167C70.0144 19.3143 70.1964 19.427 70.4044 19.505C70.6124 19.583 70.8334 19.622 71.0674 19.622ZM77.121 21H75.483V14.552H77.121V15.514H77.355C77.5024 15.15 77.7407 14.8683 78.07 14.669C78.3994 14.4697 78.785 14.37 79.227 14.37C79.539 14.37 79.8294 14.422 80.098 14.526C80.3754 14.6213 80.618 14.773 80.826 14.981C81.034 15.189 81.1944 15.4533 81.307 15.774C81.4284 16.0947 81.489 16.476 81.489 16.918V21H79.851V17.334C79.851 16.8747 79.7384 16.515 79.513 16.255C79.2964 15.9863 78.98 15.852 78.564 15.852C78.0787 15.852 77.7147 16.0167 77.472 16.346C77.238 16.6667 77.121 17.1 77.121 17.646V21Z" fill="#495567"/>
</g>
<defs>
<clipPath id="clip0_0_1038">
<rect width="120" height="40" fill="white"/>
</clipPath>
</defs>
</svg>
